<svg width="8" height="14" viewBox="0 0 8 14" fill="none" xmlns="http://www.w3.org/2000/svg">
<path d="M7.70711 12.2929C8.09763 12.6834 8.09763 13.3166 7.70711 13.7071C7.31658 14.0976 6.68342 14.0976 6.29289 13.7071L7.70711 12.2929ZM1 7L0.292894 7.70711C-0.0976306 7.31658 -0.0976305 6.68342 0.292894 6.29289L1 7ZM6.29289 0.292894C6.68342 -0.097631 7.31658 -0.0976309 7.70711 0.292894C8.09763 0.683418 8.09763 1.31658 7.70711 1.70711L6.29289 0.292894ZM6.29289 13.7071L0.292894 7.70711L1.70711 6.29289L7.70711 12.2929L6.29289 13.7071ZM0.292894 6.29289L6.29289 0.292894L7.70711 1.70711L1.70711 7.70711L0.292894 6.29289Z" fill="white"/>
</svg>
